if (_typeface_js && _typeface_js.loadFace) _typeface_js.loadFace({"glyphs":{"S":{"x_min":54.4375,"x_max":446.4375,"ha":511,"o":"m 251 979 b 58 738 114 977 58 879 b 432 234 58 472 432 486 b 250 6 432 109 386 6 b 68 234 114 6 68 109 l 68 280 l 54 280 l 54 234 b 250 -6 54 102 106 -6 b 446 234 394 -6 446 102 b 72 738 446 497 72 483 b 251 965 72 861 117 965 b 431 737 386 965 431 859 l 431 720 l 445 720 l 445 737 b 251 979 445 868 394 979 "},"/":{"x_min":54.4375,"x_max":443.71875,"ha":508,"o":"m 430 972 l 54 0 l 68 0 l 443 972 l 430 972 "},"K":{"x_min":54.4375,"x_max":488.640625,"ha":554,"o":"m 472 0 l 488 0 l 152 508 l 460 972 l 443 972 l 68 406 l 68 972 l 54 972 l 54 0 l 68 0 l 68 381 l 144 495 l 472 0 "},"7":{"x_min":54.4375,"x_max":446.4375,"ha":511,"o":"m 137 0 l 152 0 l 446 958 l 446 973 l 54 973 l 54 959 l 431 959 l 137 0 "},"d":{"x_min":54.4375,"x_max":451.890625,"ha":517,"o":"m 54 972 l 54 0 l 249 0 b 451 241 393 0 451 106 l 451 729 b 247 972 451 865 393 972 l 54 972 m 68 13 l 68 958 l 247 958 b 438 729 385 958 438 858 l 438 241 b 249 13 438 113 386 13 l 68 13 "},",":{"x_min":54.4375,"x_max":88.46875,"ha":146,"o":"m 54 -86 l 63 -86 l 88 0 l 88 108 l 74 108 l 74 0 l 76 0 l 54 -86 "},"Y":{"x_min":54.4375,"x_max":525.390625,"ha":592,"o":"m 281 0 l 295 0 l 295 402 l 525 972 l 510 972 l 288 422 l 68 972 l 54 972 l 281 402 l 281 0 "},"E":{"x_min":54.4375,"x_max":411.0625,"ha":475,"o":"m 68 500 l 68 958 l 411 958 l 411 972 l 54 972 l 54 0 l 411 0 l 411 13 l 68 13 l 68 486 l 357 486 l 357 500 l 68 500 "},"y":{"x_min":54.4375,"x_max":525.390625,"ha":592,"o":"m 281 0 l 295 0 l 295 402 l 525 972 l 510 972 l 288 422 l 68 972 l 54 972 l 281 402 l 281 0 "},"\"":{"x_min":54.4375,"x_max":134.75,"ha":193,"o":"m 54 973 l 54 758 l 68 758 l 68 973 l 54 973 m 121 973 l 121 758 l 134 758 l 134 973 l 121 973 "},"g":{"x_min":54.4375,"x_max":446.4375,"ha":511,"o":"m 250 979 b 54 733 106 979 54 863 l 54 238 b 250 -6 54 108 106 -6 b 446 238 394 -6 446 108 l 446 479 l 272 479 l 272 465 l 432 465 l 432 238 b 250 6 432 115 386 6 b 68 238 114 6 68 115 l 68 733 b 250 965 68 856 114 965 b 432 733 386 965 432 856 l 432 672 l 446 672 l 446 733 b 250 979 446 863 394 979 "},"e":{"x_min":54.4375,"x_max":411.0625,"ha":475,"o":"m 68 500 l 68 958 l 411 958 l 411 972 l 54 972 l 54 0 l 411 0 l 411 13 l 68 13 l 68 486 l 357 486 l 357 500 l 68 500 "},"J":{"x_min":54.4375,"x_max":288.5625,"ha":350,"o":"m 54 0 b 111 1 74 -1 93 0 b 288 237 228 11 288 80 l 288 972 l 274 972 l 274 237 b 111 15 274 91 225 26 b 54 13 93 13 74 12 l 54 0 "},"|":{"x_min":68.0625,"x_max":81.671875,"ha":153,"o":"m 68 973 l 68 0 l 81 0 l 81 973 l 68 973 "},"^":{"x_min":54.4375,"x_max":511.78125,"ha":578,"o":"m 283 956 l 495 543 l 511 543 l 291 972 l 274 972 l 54 543 l 70 543 l 283 956 "},"q":{"x_min":54.4375,"x_max":509.0625,"ha":535,"o":"m 254 979 b 54 733 108 979 54 866 l 54 238 b 254 -6 54 105 108 -6 b 390 44 314 -6 359 12 b 494 -8 415 6 449 -8 l 509 -8 l 509 5 l 494 5 b 400 54 453 5 421 18 b 454 238 438 100 454 165 l 454 733 b 254 979 454 866 400 979 m 254 965 b 441 733 392 965 441 858 l 441 238 b 254 6 441 112 392 6 b 68 238 117 6 68 112 l 68 733 b 254 965 68 858 117 965 "},"b":{"x_min":54.4375,"x_max":438.28125,"ha":503,"o":"m 54 972 l 54 0 l 240 0 b 438 222 383 0 438 86 l 438 309 b 277 518 438 423 394 504 b 419 706 390 531 419 598 l 419 773 b 240 972 419 901 377 972 l 54 972 m 68 525 l 68 958 l 240 958 b 405 773 368 958 405 894 l 405 706 b 200 525 405 556 343 525 l 68 525 m 68 13 l 68 511 l 215 511 b 424 309 353 511 424 456 l 424 222 b 240 13 424 93 375 13 l 68 13 "},"D":{"x_min":54.4375,"x_max":451.890625,"ha":517,"o":"m 54 972 l 54 0 l 249 0 b 451 241 393 0 451 106 l 451 729 b 247 972 451 865 393 972 l 54 972 m 68 13 l 68 958 l 247 958 b 438 729 385 958 438 858 l 438 241 b 249 13 438 113 386 13 l 68 13 "},"z":{"x_min":54.4375,"x_max":485.921875,"ha":553,"o":"m 479 13 l 69 13 l 485 955 l 485 972 l 74 972 l 74 958 l 470 958 l 54 15 l 54 0 l 479 0 l 479 13 "},"w":{"x_min":54.4375,"x_max":797.609375,"ha":869,"o":"m 434 952 l 601 0 l 619 0 l 797 972 l 784 972 l 611 26 l 445 966 l 423 966 l 246 19 l 68 972 l 54 972 l 235 0 l 255 0 l 434 952 "},"$":{"x_min":54.4375,"x_max":446.4375,"ha":510,"o":"m 258 1069 l 245 1069 l 245 979 b 58 738 111 973 58 876 b 432 234 58 472 432 486 b 250 6 432 109 386 6 b 68 234 114 6 68 109 l 68 280 l 54 280 l 54 234 b 245 -6 54 104 104 -4 l 245 -87 l 258 -87 l 258 -6 b 446 234 396 -2 446 105 b 72 738 446 497 72 483 b 251 965 72 861 117 965 b 431 737 386 965 431 859 l 431 720 l 445 720 l 445 737 b 258 979 445 865 396 975 l 258 1069 "},"\\":{"x_min":54.4375,"x_max":443.71875,"ha":508,"o":"m 54 972 l 430 0 l 443 0 l 68 972 l 54 972 "},"~":{"x_min":54,"x_max":485,"ha":551,"o":"m 165 534 b 54 455 113 533 78 498 l 64 449 b 165 521 86 487 119 521 b 389 435 245 524 309 430 b 485 515 436 437 464 476 l 472 522 b 388 449 455 487 429 451 b 165 534 315 446 249 537 "},"-":{"x_min":54.4375,"x_max":291.28125,"ha":353,"o":"m 54 480 l 291 480 l 291 493 l 54 493 l 54 480 "},"Q":{"x_min":54.4375,"x_max":509.0625,"ha":575,"o":"m 254 979 b 54 733 108 979 54 866 l 54 238 b 254 -6 54 105 108 -6 b 390 44 314 -6 359 12 b 494 -8 415 6 449 -8 l 509 -8 l 509 5 l 494 5 b 400 54 453 5 421 18 b 454 238 438 100 454 165 l 454 733 b 254 979 454 866 400 979 m 254 965 b 441 733 392 965 441 858 l 441 238 b 254 6 441 112 392 6 b 68 238 117 6 68 112 l 68 733 b 254 965 68 858 117 965 "},"M":{"x_min":54.4375,"x_max":605.703125,"ha":674,"o":"m 592 958 l 592 0 l 605 0 l 605 972 l 582 972 l 329 18 l 78 972 l 54 972 l 54 0 l 68 0 l 68 958 l 319 2 l 338 2 l 592 958 "},"C":{"x_min":54.4375,"x_max":446.4375,"ha":511,"o":"m 250 979 b 54 733 106 979 54 863 l 54 238 b 250 -6 54 108 106 -6 b 446 238 394 -6 446 108 l 446 341 l 432 341 l 432 238 b 250 6 432 115 386 6 b 68 238 114 6 68 115 l 68 733 b 250 965 68 856 114 965 b 432 733 386 965 432 856 l 432 659 l 446 659 l 446 733 b 250 979 446 863 394 979 "},"[":{"x_min":54.4375,"x_max":247.71875,"ha":308,"o":"m 68 13 l 68 959 l 247 959 l 247 973 l 54 973 l 54 0 l 247 0 l 247 13 l 68 13 "},"L":{"x_min":54.4375,"x_max":397.4375,"ha":461,"o":"m 397 0 l 397 13 l 68 13 l 68 972 l 54 972 l 54 0 l 397 0 "},"!":{"x_min":54.4375,"x_max":68.0625,"ha":125,"o":"m 55 215 l 66 215 l 68 408 l 68 973 l 54 973 l 54 408 l 55 215 m 54 106 l 54 0 l 68 0 l 68 106 l 54 106 "}," ":{"x_min":0,"x_max":0,"ha":215},"{":{"x_min":54.4375,"x_max":294,"ha":356,"o":"m 294 959 l 294 973 l 258 973 b 156 834 172 973 160 908 l 147 641 b 54 495 144 562 140 515 l 54 476 b 147 331 140 458 144 409 l 156 138 b 258 0 160 63 172 0 l 294 0 l 294 13 l 258 13 b 170 138 182 13 174 72 l 160 331 b 72 486 157 406 151 463 b 160 640 151 509 157 566 l 170 834 b 258 959 174 901 182 959 l 294 959 "},"X":{"x_min":54.4375,"x_max":552.609375,"ha":619,"o":"m 537 0 l 552 0 l 311 505 l 536 972 l 521 972 l 303 520 l 85 972 l 70 972 l 296 505 l 54 0 l 70 0 l 303 490 l 537 0 "},"P":{"x_min":54.4375,"x_max":431.46875,"ha":496,"o":"m 54 972 l 54 0 l 68 0 l 68 419 l 212 419 b 431 644 364 419 431 491 l 431 738 b 238 972 431 872 385 972 l 54 972 m 68 433 l 68 958 l 238 958 b 417 738 377 958 417 865 l 417 644 b 212 433 417 498 357 433 l 68 433 "},"%":{"x_min":54.296875,"x_max":752.546875,"ha":824,"o":"m 174 973 b 54 813 82 973 54 894 l 54 531 b 174 373 54 451 82 373 b 293 531 265 373 293 451 l 293 813 b 174 973 293 894 265 973 m 582 973 l 206 0 l 221 0 l 597 973 l 582 973 m 174 959 b 280 813 257 959 280 886 l 280 531 b 174 387 280 459 257 387 b 67 531 89 387 67 459 l 67 813 b 174 959 67 886 89 959 m 632 594 b 512 436 541 594 512 516 l 512 159 b 632 0 512 79 541 0 b 752 159 725 0 752 79 l 752 436 b 632 594 752 516 725 594 m 632 580 b 738 436 717 580 738 508 l 738 159 b 632 13 738 87 717 13 b 526 159 549 13 526 87 l 526 436 b 632 580 526 508 549 580 "},"#":{"x_min":54.4375,"x_max":511.78125,"ha":578,"o":"m 511 688 l 511 701 l 421 701 l 449 973 l 435 973 l 408 701 l 208 701 l 235 973 l 221 973 l 194 701 l 89 701 l 89 688 l 193 688 l 157 338 l 54 338 l 54 326 l 156 326 l 122 0 l 136 0 l 170 326 l 370 326 l 336 0 l 349 0 l 383 326 l 475 326 l 475 338 l 385 338 l 420 688 l 511 688 m 371 338 l 171 338 l 206 688 l 406 688 l 371 338 "},"_":{"x_min":54.4375,"x_max":639.71875,"ha":722,"o":"m 54 -13 l 54 -26 l 639 -26 l 639 -13 l 54 -13 "},"+":{"x_min":54.4375,"x_max":468.21875,"ha":533,"o":"m 468 479 l 468 493 l 268 493 l 268 698 l 254 698 l 254 493 l 54 493 l 54 479 l 254 479 l 254 270 l 268 270 l 268 479 l 468 479 "},")":{"x_min":54.4375,"x_max":245,"ha":306,"o":"m 54 973 l 54 959 l 74 959 b 231 756 204 959 231 873 l 231 216 b 74 13 231 98 205 13 l 54 13 l 54 0 l 74 0 b 245 216 213 0 245 91 l 245 756 b 74 973 245 881 212 973 l 54 973 "},"'":{"x_min":54.4375,"x_max":68.0625,"ha":125,"o":"m 54 973 l 54 758 l 68 758 l 68 973 l 54 973 "},"}":{"x_min":54.4375,"x_max":294,"ha":356,"o":"m 54 973 l 54 959 l 89 959 b 178 834 166 959 174 901 l 187 640 b 276 486 190 566 197 509 b 187 331 197 463 190 406 l 178 138 b 89 13 174 72 166 13 l 54 13 l 54 0 l 89 0 b 191 138 175 0 187 63 l 201 331 b 294 476 204 409 208 458 l 294 495 b 201 641 208 515 204 562 l 191 834 b 89 973 187 908 175 973 l 54 973 "},"a":{"x_min":54.4375,"x_max":560.78125,"ha":628,"o":"m 487 236 l 547 0 l 560 0 l 314 973 l 295 973 l 54 0 l 68 0 l 126 236 l 487 236 m 304 955 l 483 250 l 130 250 l 304 955 "},"T":{"x_min":32.671875,"x_max":476.390625,"ha":524,"o":"m 261 0 l 261 958 l 476 958 l 476 972 l 32 972 l 32 958 l 247 958 l 247 0 l 261 0 "},"=":{"x_min":54.4375,"x_max":291.28125,"ha":353,"o":"m 54 591 l 54 579 l 291 579 l 291 591 l 54 591 m 54 452 l 54 440 l 291 440 l 291 452 l 54 452 "},"N":{"x_min":54.4375,"x_max":450.53125,"ha":515,"o":"m 68 958 l 430 0 l 450 0 l 450 972 l 436 972 l 436 18 l 77 972 l 54 972 l 54 0 l 68 0 l 68 958 "},"2":{"x_min":54.4375,"x_max":445.078125,"ha":510,"o":"m 249 979 b 54 726 102 979 54 858 l 54 680 l 68 680 l 68 726 b 249 966 68 850 110 966 b 431 729 392 966 431 855 b 54 6 431 470 54 381 l 54 0 l 441 0 l 441 13 l 68 13 l 68 18 b 445 729 74 376 445 463 b 249 979 445 863 400 979 "},"j":{"x_min":54.4375,"x_max":288.5625,"ha":350,"o":"m 54 0 b 111 1 74 -1 93 0 b 288 237 228 11 288 80 l 288 972 l 274 972 l 274 237 b 111 15 274 91 225 26 b 54 13 93 13 74 12 l 54 0 "},"Z":{"x_min":54.4375,"x_max":485.921875,"ha":553,"o":"m 479 13 l 69 13 l 485 955 l 485 972 l 74 972 l 74 958 l 470 958 l 54 15 l 54 0 l 479 0 l 479 13 "},"":{"x_min":54.4375,"x_max":88.46875,"ha":0,"o":"m 88 -155 l 88 -47 l 74 -47 l 74 -155 l 76 -155 l 54 -241 l 63 -241 l 88 -155 "},"u":{"x_min":54.4375,"x_max":439.640625,"ha":504,"o":"m 68 972 l 54 972 l 54 241 b 247 -6 54 111 102 -6 b 439 241 392 -6 439 111 l 439 972 l 426 972 l 426 241 b 247 6 426 118 383 6 b 68 241 110 6 68 118 l 68 972 "},"1":{"x_min":54.4375,"x_max":232.75,"ha":300,"o":"m 219 0 l 232 0 l 232 973 l 213 973 b 54 830 187 897 134 840 l 54 816 b 219 948 132 826 189 876 l 219 0 "},"k":{"x_min":54.4375,"x_max":488.640625,"ha":554,"o":"m 472 0 l 488 0 l 152 508 l 460 972 l 443 972 l 68 406 l 68 972 l 54 972 l 54 0 l 68 0 l 68 381 l 144 495 l 472 0 "},"<":{"x_min":54.4375,"x_max":430.109375,"ha":494,"o":"m 430 298 l 70 486 l 430 673 l 430 689 l 54 493 l 54 479 l 430 283 l 430 298 "},"t":{"x_min":27.21875,"x_max":470.9375,"ha":513,"o":"m 255 0 l 255 958 l 470 958 l 470 972 l 27 972 l 27 958 l 242 958 l 242 0 l 255 0 "},"W":{"x_min":54.4375,"x_max":797.609375,"ha":869,"o":"m 434 952 l 601 0 l 619 0 l 797 972 l 784 972 l 611 26 l 445 966 l 423 966 l 246 19 l 68 972 l 54 972 l 235 0 l 255 0 l 434 952 "},"v":{"x_min":54.4375,"x_max":560.78125,"ha":628,"o":"m 54 972 l 299 0 l 319 0 l 560 972 l 545 972 l 308 15 l 69 972 l 54 972 "},">":{"x_min":54.4375,"x_max":430.109375,"ha":494,"o":"m 54 283 l 430 479 l 430 492 l 54 689 l 54 673 l 413 486 l 54 298 l 54 283 "},"s":{"x_min":54.4375,"x_max":446.4375,"ha":511,"o":"m 251 979 b 58 738 114 977 58 879 b 432 234 58 472 432 486 b 250 6 432 109 386 6 b 68 234 114 6 68 109 l 68 280 l 54 280 l 54 234 b 250 -6 54 102 106 -6 b 446 234 394 -6 446 102 b 72 738 446 497 72 483 b 251 965 72 861 117 965 b 431 737 386 965 431 859 l 431 720 l 445 720 l 445 737 b 251 979 445 868 394 979 "},"B":{"x_min":54.4375,"x_max":438.28125,"ha":503,"o":"m 54 972 l 54 0 l 240 0 b 438 222 383 0 438 86 l 438 309 b 277 518 438 423 394 504 b 419 706 390 531 419 598 l 419 773 b 240 972 419 901 377 972 l 54 972 m 68 525 l 68 958 l 240 958 b 405 773 368 958 405 894 l 405 706 b 200 525 405 556 343 525 l 68 525 m 68 13 l 68 511 l 215 511 b 424 309 353 511 424 456 l 424 222 b 240 13 424 93 375 13 l 68 13 "},"?":{"x_min":54.0625,"x_max":440.625,"ha":506,"o":"m 247 979 b 54 726 100 979 54 856 l 54 680 l 67 680 l 67 726 b 247 966 67 848 108 966 b 427 729 388 966 427 854 b 216 268 427 538 217 479 b 222 218 216 251 218 234 l 236 218 b 229 268 232 233 229 252 b 440 729 229 472 440 531 b 247 979 440 862 397 979 m 221 106 l 221 0 l 235 0 l 235 106 l 221 106 "},"H":{"x_min":54.4375,"x_max":449.171875,"ha":514,"o":"m 435 479 l 435 0 l 449 0 l 449 972 l 435 972 l 435 493 l 68 493 l 68 972 l 54 972 l 54 0 l 68 0 l 68 479 l 435 479 "},"c":{"x_min":54.4375,"x_max":446.4375,"ha":511,"o":"m 250 979 b 54 733 106 979 54 863 l 54 238 b 250 -6 54 108 106 -6 b 446 238 394 -6 446 108 l 446 341 l 432 341 l 432 238 b 250 6 432 115 386 6 b 68 238 114 6 68 115 l 68 733 b 250 965 68 856 114 965 b 432 733 386 965 432 856 l 432 659 l 446 659 l 446 733 b 250 979 446 863 394 979 "},"&":{"x_min":54.4375,"x_max":485.921875,"ha":551,"o":"m 400 958 l 400 972 l 284 972 b 54 730 129 972 54 884 l 54 702 b 190 506 54 616 96 529 b 54 306 99 480 54 395 l 54 219 b 243 -6 54 91 108 -6 b 415 101 318 -6 386 29 b 439 0 415 65 420 33 l 455 0 b 427 133 427 41 427 84 l 427 501 l 485 501 l 485 513 l 427 513 l 427 622 l 413 622 l 413 513 l 220 513 b 68 702 122 520 68 609 l 68 730 b 284 958 68 877 137 958 l 400 958 m 413 501 l 413 172 b 243 6 413 70 340 6 b 68 219 117 6 68 100 l 68 306 b 230 501 68 408 126 491 l 413 501 "},"I":{"x_min":54.4375,"x_max":68.0625,"ha":125,"o":"m 54 972 l 54 0 l 68 0 l 68 972 l 54 972 "},"G":{"x_min":54.4375,"x_max":446.4375,"ha":511,"o":"m 250 979 b 54 733 106 979 54 863 l 54 238 b 250 -6 54 108 106 -6 b 446 238 394 -6 446 108 l 446 479 l 272 479 l 272 465 l 432 465 l 432 238 b 250 6 432 115 386 6 b 68 238 114 6 68 115 l 68 733 b 250 965 68 856 114 965 b 432 733 386 965 432 856 l 432 672 l 446 672 l 446 733 b 250 979 446 863 394 979 "},"(":{"x_min":54.4375,"x_max":245,"ha":306,"o":"m 245 959 l 245 973 l 224 973 b 54 756 87 973 54 881 l 54 216 b 224 0 54 91 85 0 l 245 0 l 245 13 l 224 13 b 68 216 93 13 68 98 l 68 756 b 224 959 68 873 95 959 l 245 959 "},"`":{"x_min":54.4375,"x_max":172.859375,"ha":232,"o":"m 54 1177 l 155 1058 l 172 1058 l 73 1177 l 54 1177 "},"U":{"x_min":54.4375,"x_max":439.640625,"ha":504,"o":"m 68 972 l 54 972 l 54 241 b 247 -6 54 111 102 -6 b 439 241 392 -6 439 111 l 439 972 l 426 972 l 426 241 b 247 6 426 118 383 6 b 68 241 110 6 68 118 l 68 972 "},"F":{"x_min":54.4375,"x_max":397.4375,"ha":461,"o":"m 68 475 l 68 958 l 397 958 l 397 972 l 54 972 l 54 0 l 68 0 l 68 461 l 344 461 l 344 475 l 68 475 "},"r":{"x_min":54.4375,"x_max":458.6875,"ha":524,"o":"m 54 972 l 54 0 l 68 0 l 68 455 l 193 455 b 417 268 325 455 417 418 l 417 115 b 442 0 417 77 421 31 l 458 0 b 431 115 435 29 431 79 l 431 268 b 272 461 431 376 382 445 b 431 666 382 477 431 544 l 431 754 b 238 972 431 886 378 972 l 54 972 m 68 469 l 68 958 l 238 958 b 417 754 370 958 417 879 l 417 666 b 193 469 417 505 334 469 l 68 469 "},":":{"x_min":54.4375,"x_max":68.0625,"ha":125,"o":"m 54 637 l 54 529 l 68 529 l 68 637 l 54 637 m 54 108 l 54 0 l 68 0 l 68 108 l 54 108 "},"x":{"x_min":54.4375,"x_max":552.609375,"ha":619,"o":"m 537 0 l 552 0 l 311 505 l 536 972 l 521 972 l 303 520 l 85 972 l 70 972 l 296 505 l 54 0 l 70 0 l 303 490 l 537 0 "},"*":{"x_min":68.0625,"x_max":466.859375,"ha":546,"o":"m 466 797 l 462 811 l 273 758 l 273 961 l 259 961 l 259 758 l 72 815 l 68 801 l 257 747 l 144 582 l 155 575 l 266 739 l 378 574 l 389 582 l 276 747 l 466 797 "},"V":{"x_min":54.4375,"x_max":560.78125,"ha":628,"o":"m 54 972 l 299 0 l 319 0 l 560 972 l 545 972 l 308 15 l 69 972 l 54 972 "},"h":{"x_min":54.4375,"x_max":449.171875,"ha":514,"o":"m 435 479 l 435 0 l 449 0 l 449 972 l 435 972 l 435 493 l 68 493 l 68 972 l 54 972 l 54 0 l 68 0 l 68 479 l 435 479 "},"0":{"x_min":54.4375,"x_max":453.25,"ha":518,"o":"m 54 240 b 254 -6 54 105 108 -6 b 453 240 398 -6 453 105 l 453 733 b 254 979 453 868 398 979 b 54 733 108 979 54 868 l 54 240 m 68 733 b 254 966 68 859 117 966 b 439 733 392 966 439 859 l 439 240 b 254 6 439 113 392 6 b 68 240 117 6 68 113 l 68 733 "},".":{"x_min":54.4375,"x_max":68.0625,"ha":125,"o":"m 54 108 l 54 0 l 68 0 l 68 108 l 54 108 "},"@":{"x_min":54.4375,"x_max":882,"ha":956,"o":"m 528 1005 b 54 393 185 1005 54 700 b 469 -54 54 109 183 -54 b 707 15 555 -54 637 -34 l 707 33 b 469 -40 643 -19 552 -40 b 68 393 191 -40 68 116 b 528 991 68 691 193 991 b 868 620 763 991 868 852 b 666 225 869 494 831 226 b 600 336 608 225 596 287 l 641 729 l 627 729 l 617 633 b 487 737 601 701 556 737 b 311 540 374 737 322 644 l 298 404 b 431 193 288 304 313 193 b 586 311 509 193 559 240 b 666 211 588 259 611 211 b 882 622 842 212 882 486 b 528 1005 882 859 770 1005 m 487 723 b 608 540 594 723 617 632 l 593 404 b 431 207 583 307 540 207 b 311 401 321 207 302 311 l 325 539 b 487 723 336 634 381 723 "},"f":{"x_min":54.4375,"x_max":397.4375,"ha":461,"o":"m 68 475 l 68 958 l 397 958 l 397 972 l 54 972 l 54 0 l 68 0 l 68 461 l 344 461 l 344 475 l 68 475 "},";":{"x_min":54.4375,"x_max":88.46875,"ha":146,"o":"m 74 637 l 74 529 l 88 529 l 88 637 l 74 637 m 54 -86 l 63 -86 l 88 0 l 88 108 l 74 108 l 74 0 l 76 0 l 54 -86 "},"i":{"x_min":54.4375,"x_max":68.0625,"ha":125,"o":"m 54 972 l 54 0 l 68 0 l 68 972 l 54 972 "},"6":{"x_min":54.4375,"x_max":454.609375,"ha":519,"o":"m 254 979 b 54 733 108 979 54 868 l 54 240 b 254 -6 54 105 108 -6 b 454 240 400 -6 454 105 l 454 326 b 254 572 454 459 400 572 b 68 431 159 572 95 522 l 68 733 b 254 966 68 859 117 966 b 436 738 392 966 436 863 l 436 734 l 450 734 l 450 738 b 254 979 450 872 398 979 m 254 558 b 441 326 392 558 441 451 l 441 240 b 254 6 441 113 392 6 b 68 240 117 6 68 113 l 68 326 b 254 558 68 451 117 558 "},"A":{"x_min":54.4375,"x_max":560.78125,"ha":628,"o":"m 487 236 l 547 0 l 560 0 l 314 973 l 295 973 l 54 0 l 68 0 l 126 236 l 487 236 m 304 955 l 483 250 l 130 250 l 304 955 "},"n":{"x_min":54.4375,"x_max":450.53125,"ha":515,"o":"m 68 958 l 430 0 l 450 0 l 450 972 l 436 972 l 436 18 l 77 972 l 54 972 l 54 0 l 68 0 l 68 958 "},"O":{"x_min":54.4375,"x_max":453.25,"ha":518,"o":"m 54 238 b 253 -6 54 105 108 -6 b 453 238 398 -6 453 105 l 453 733 b 253 979 453 866 398 979 b 54 733 108 979 54 866 l 54 238 m 68 733 b 253 965 68 858 115 965 b 439 733 390 965 439 858 l 439 238 b 253 6 439 112 390 6 b 68 238 115 6 68 112 l 68 733 "},"3":{"x_min":54.4375,"x_max":446.4375,"ha":511,"o":"m 250 979 b 54 733 104 979 54 866 l 54 708 l 68 708 l 68 733 b 250 966 68 858 112 966 b 432 733 387 966 432 858 l 432 709 b 266 513 432 608 368 522 l 194 513 l 194 501 l 266 501 b 432 313 372 494 432 420 l 432 240 b 250 6 432 115 387 6 b 68 240 112 6 68 115 l 68 280 l 54 280 l 54 240 b 250 -6 54 106 104 -6 b 446 240 396 -6 446 106 l 446 313 b 306 508 446 408 398 484 b 446 709 393 534 446 618 l 446 733 b 250 979 446 866 396 979 "},"]":{"x_min":54.4375,"x_max":247.71875,"ha":308,"o":"m 54 13 l 54 0 l 247 0 l 247 973 l 54 973 l 54 959 l 234 959 l 234 13 l 54 13 "},"m":{"x_min":54.4375,"x_max":605.703125,"ha":674,"o":"m 592 958 l 592 0 l 605 0 l 605 972 l 582 972 l 329 18 l 78 972 l 54 972 l 54 0 l 68 0 l 68 958 l 319 2 l 338 2 l 592 958 "},"9":{"x_min":54.4375,"x_max":454.609375,"ha":519,"o":"m 254 980 b 54 733 108 980 54 868 l 54 647 b 254 401 54 513 108 401 b 441 541 349 401 413 451 l 441 240 b 254 6 441 113 392 6 b 68 236 118 6 68 109 l 68 241 l 54 241 l 54 236 b 254 -6 54 101 110 -6 b 454 240 400 -6 454 105 l 454 733 b 254 980 454 868 400 980 m 254 966 b 441 733 392 966 441 859 l 441 647 b 254 415 441 522 392 415 b 68 647 117 415 68 522 l 68 733 b 254 966 68 859 117 966 "},"l":{"x_min":54.4375,"x_max":397.4375,"ha":461,"o":"m 397 0 l 397 13 l 68 13 l 68 972 l 54 972 l 54 0 l 397 0 "},"8":{"x_min":54.4375,"x_max":466.859375,"ha":532,"o":"m 259 979 b 54 748 121 979 54 884 l 54 716 b 201 508 54 611 93 529 b 54 295 91 484 54 405 l 54 231 b 259 -6 54 94 117 -6 b 466 231 404 -6 466 94 l 466 295 b 322 508 466 402 430 486 b 466 716 427 527 466 613 l 466 748 b 259 979 466 884 400 979 m 259 966 b 453 748 392 966 453 876 l 453 716 b 259 513 453 587 390 513 b 68 716 130 513 68 587 l 68 748 b 259 966 68 876 129 966 m 259 500 b 453 295 393 500 453 429 l 453 231 b 259 6 453 102 396 6 b 68 231 125 6 68 102 l 68 295 b 259 500 68 429 127 500 "},"p":{"x_min":54.4375,"x_max":431.46875,"ha":496,"o":"m 54 972 l 54 0 l 68 0 l 68 419 l 212 419 b 431 644 364 419 431 491 l 431 738 b 238 972 431 872 385 972 l 54 972 m 68 433 l 68 958 l 238 958 b 417 738 377 958 417 865 l 417 644 b 212 433 417 498 357 433 l 68 433 "},"4":{"x_min":54.4375,"x_max":499.53125,"ha":565,"o":"m 499 236 l 499 250 l 413 250 l 413 973 l 394 973 l 54 251 l 54 236 l 400 236 l 400 0 l 413 0 l 413 236 l 499 236 m 400 952 l 400 250 l 68 250 l 400 952 "},"R":{"x_min":54.4375,"x_max":458.6875,"ha":524,"o":"m 54 972 l 54 0 l 68 0 l 68 455 l 193 455 b 417 268 325 455 417 418 l 417 115 b 442 0 417 77 421 31 l 458 0 b 431 115 435 29 431 79 l 431 268 b 272 461 431 376 382 445 b 431 666 382 477 431 544 l 431 754 b 238 972 431 886 378 972 l 54 972 m 68 469 l 68 958 l 238 958 b 417 754 370 958 417 879 l 417 666 b 193 469 417 505 334 469 l 68 469 "},"o":{"x_min":54.4375,"x_max":453.25,"ha":518,"o":"m 54 238 b 253 -6 54 105 108 -6 b 453 238 398 -6 453 105 l 453 733 b 253 979 453 866 398 979 b 54 733 108 979 54 866 l 54 238 m 68 733 b 253 965 68 858 115 965 b 439 733 390 965 439 858 l 439 238 b 253 6 439 112 390 6 b 68 238 115 6 68 112 l 68 733 "},"5":{"x_min":54.4375,"x_max":446.4375,"ha":511,"o":"m 104 959 l 428 959 l 428 973 l 92 973 l 68 480 l 81 480 l 81 488 b 250 609 110 563 168 609 b 432 377 386 609 432 501 l 432 240 b 250 6 432 116 386 6 b 68 240 114 6 68 116 l 68 276 l 54 276 l 54 240 b 250 -6 54 108 106 -6 b 446 240 394 -6 446 108 l 446 377 b 250 623 446 508 394 623 b 84 523 175 623 118 591 l 104 959 "}}}
